<svg xmlns="http://www.w3.org/2000/svg" width="270.405" height="252.666" viewBox="0 0 270.405 252.666">
  <path id="file-signature-solid" d="M25.125,0A25.148,25.148,0,0,0,0,25.125v150.75A25.148,25.148,0,0,0,25.125,201h100.5a25.148,25.148,0,0,0,25.125-25.125V168.3a23.748,23.748,0,0,1-3.219,1.06l-23.594,5.889a22.007,22.007,0,0,1-3.533.55,9.625,9.625,0,0,1-1.06.079H94.219A6.251,6.251,0,0,1,88.6,172.42l-3.455-6.949a3.864,3.864,0,0,0-3.455-2.159,3.821,3.821,0,0,0-3.455,2.159l-3.455,6.949a6.272,6.272,0,0,1-11.62-.981l-6.635-21.867-3.847,12.877a18.857,18.857,0,0,1-18.059,13.426H31.406a6.281,6.281,0,0,1,0-12.562h3.219a6.23,6.23,0,0,0,6.006-4.475L46.481,139.4a10.484,10.484,0,0,1,20.1,0l4.554,15.154a16.447,16.447,0,0,1,25.243,5.3l1.727,3.455H101.6a19.093,19.093,0,0,1-.55-10.914l5.889-23.594a24.929,24.929,0,0,1,6.6-11.66L150.75,79.929V62.813H100.5A12.549,12.549,0,0,1,87.938,50.25V0ZM100.5,0V50.25h50.25ZM215.839,54.843a15.733,15.733,0,0,0-22.22,0L182.078,66.385l27.873,27.873,11.542-11.542a15.733,15.733,0,0,0,0-22.22l-5.653-5.653Zm-93.394,71.174a12.432,12.432,0,0,0-3.3,5.849l-5.889,23.594a6.276,6.276,0,0,0,7.616,7.616l23.594-5.889a12.623,12.623,0,0,0,5.849-3.3l50.721-50.76L173.166,75.257Z" transform="matrix(0.966, 0.259, -0.259, 0.966, 52.023, 0)" fill="#fff"/>
</svg>
