<svg id="AB_Logo" data-name="AB Logo" xmlns="http://www.w3.org/2000/svg" xmlns:xlink="http://www.w3.org/1999/xlink" width="145.855" height="60" viewBox="0 0 145.855 60">
  <defs>
    <clipPath id="clip-path">
      <rect id="Rectangle_36" data-name="Rectangle 36" width="145.855" height="60" fill="none"/>
    </clipPath>
  </defs>
  <path id="Path_2602" data-name="Path 2602" d="M59.613,0,58.57,2.329l22.667,50.6,2.119,4.73h2.086Z" transform="translate(-32.039 0)" fill="#fff"/>
  <path id="Path_2603" data-name="Path 2603" d="M41.664,34.334,25.781,69.788h2.086l14.84-33.126Z" transform="translate(-14.103 -18.781)" fill="#fff"/>
  <g id="Group_456" data-name="Group 456">
    <g id="Group_455" data-name="Group 455" clip-path="url(#clip-path)">
      <path id="Path_2604" data-name="Path 2604" d="M12.918,124.037a2.639,2.639,0,0,1-.179.952H53.1l-.853-1.9h-39.5a2.637,2.637,0,0,1,.179.952" transform="translate(-6.969 -67.33)" fill="#fff"/>
      <path id="Path_2605" data-name="Path 2605" d="M3.294,124.5a3.293,3.293,0,1,1,3.293-3.293A3.3,3.3,0,0,1,3.294,124.5m0-5.312a2.019,2.019,0,1,0,2.019,2.019,2.021,2.021,0,0,0-2.019-2.019" transform="translate(0 -64.503)" fill="#fff"/>
      <path id="Path_2606" data-name="Path 2606" d="M61.722,109a2.664,2.664,0,0,1,.071-.6h-19.2l-.853,1.9H62.064a2.643,2.643,0,0,1-.342-1.3" transform="translate(-22.832 -59.298)" fill="#fff"/>
      <path id="Path_2607" data-name="Path 2607" d="M9.177,64.588,29.036,20.256l-1.043-2.329L7.417,63.86a2.643,2.643,0,0,1,1.76.727" transform="translate(-4.057 -9.806)" fill="#fff"/>
      <path id="Path_2608" data-name="Path 2608" d="M77.919,75.526c.044,0,.087,0,.13.007L67.533,52.058,66.49,54.387l9.74,21.744a2.645,2.645,0,0,1,1.688-.605" transform="translate(-36.372 -28.477)" fill="#fff"/>
      <path id="Path_2609" data-name="Path 2609" d="M87.742,109.046a3.294,3.294,0,1,1,3.294-3.294,3.3,3.3,0,0,1-3.294,3.294m0-5.313a2.019,2.019,0,1,0,2.019,2.019,2.021,2.021,0,0,0-2.019-2.019" transform="translate(-46.196 -56.047)" fill="#fff"/>
      <path id="Path_2610" data-name="Path 2610" d="M178.362,31.9v17.5h7.24V47.787H180.15V31.9Z" transform="translate(-97.568 -17.451)" fill="#fff"/>
      <path id="Path_2611" data-name="Path 2611" d="M216.49,40.547a4.686,4.686,0,0,0,1.623-3.661,4.813,4.813,0,0,0-2.074-4.068,6.8,6.8,0,0,0-3.771-.915H208.7V49.407h1.788V41.869h1.8a6.179,6.179,0,0,0,4.195-1.322m-6-7.079h1.777c3.762,0,4.168,2.37,4.168,3.39,0,2.158-1.548,3.445-4.14,3.445h-1.8Z" transform="translate(-114.165 -17.451)" fill="#fff"/>
      <path id="Path_2612" data-name="Path 2612" d="M256.9,49.408V31.9h-1.788v7.344h-9.005V31.9h-1.788v17.5h1.788v-8.54h9.005v8.54Z" transform="translate(-133.65 -17.452)" fill="#fff"/>
      <path id="Path_2613" data-name="Path 2613" d="M148.926,89.1a1.853,1.853,0,0,0-.873-.484l-.478-.119.447-.209a1.046,1.046,0,0,0,.479-.441,1.431,1.431,0,0,0,.2-.793,1.719,1.719,0,0,0-.535-1.341,2.562,2.562,0,0,0-1.927-.531h-.949v7.074h1.684a2.692,2.692,0,0,0,1.955-.668,1.628,1.628,0,0,0,.442-1.216,1.74,1.74,0,0,0-.441-1.272m-2.853-3.2h.564a1.38,1.38,0,0,1,1.022.326,1.1,1.1,0,0,1,.321.839,1.29,1.29,0,0,1-.343.972,1.471,1.471,0,0,1-1.045.339h-.52Zm2.1,5.309a2.151,2.151,0,0,1-1.233.328h-.865V88.961h.887a1.793,1.793,0,0,1,1.291.383,1.3,1.3,0,0,1,.353.905,1.246,1.246,0,0,1-.432.96" transform="translate(-79.475 -46.596)" fill="#fff"/>
      <path id="Path_2614" data-name="Path 2614" d="M160.664,85.18v7.074h2.968v-.718H161.45V85.18Z" transform="translate(-87.887 -46.596)" fill="#fff"/>
      <path id="Path_2615" data-name="Path 2615" d="M174.964,84.887a3.676,3.676,0,1,0,3.688,3.676,3.6,3.6,0,0,0-3.688-3.676m0,6.656a2.98,2.98,0,1,1,2.9-2.98,2.844,2.844,0,0,1-2.9,2.98" transform="translate(-93.692 -46.435)" fill="#fff"/>
      <path id="Path_2616" data-name="Path 2616" d="M198.646,86.212v-.869a3.391,3.391,0,0,0-1.806-.456,3.509,3.509,0,0,0-2.563.92,3.7,3.7,0,0,0-1.136,2.778,3.478,3.478,0,0,0,1.136,2.677,3.559,3.559,0,0,0,2.507.977,3.872,3.872,0,0,0,1.862-.482V90.89a2.981,2.981,0,0,1-1.829.652,2.86,2.86,0,0,1-2.89-2.957,2.816,2.816,0,0,1,2.88-3,3.028,3.028,0,0,1,1.839.628" transform="translate(-105.653 -46.435)" fill="#fff"/>
      <path id="Path_2617" data-name="Path 2617" d="M216.517,85.18h-1L212.4,88.4V85.18h-.786v7.074h.786V89.286l.411-.412,2.719,3.381h1.058l-3.236-3.9Z" transform="translate(-115.758 -46.596)" fill="#fff"/>
      <path id="Path_2618" data-name="Path 2618" d="M232.7,86.212v-.869a3.392,3.392,0,0,0-1.806-.456,3.507,3.507,0,0,0-2.563.92,3.7,3.7,0,0,0-1.136,2.778,3.48,3.48,0,0,0,1.135,2.677,3.561,3.561,0,0,0,2.508.977,3.876,3.876,0,0,0,1.862-.482V90.89a2.984,2.984,0,0,1-1.829.653,2.861,2.861,0,0,1-2.891-2.957,2.816,2.816,0,0,1,2.88-3,3.029,3.029,0,0,1,1.84.628" transform="translate(-124.278 -46.435)" fill="#fff"/>
      <path id="Path_2619" data-name="Path 2619" d="M250.77,92.255V85.181h-.786V88.12H246.45V85.181h-.785v7.074h.785V88.839h3.534v3.416Z" transform="translate(-134.384 -46.596)" fill="#fff"/>
      <path id="Path_2620" data-name="Path 2620" d="M267.493,90.235l.78,1.792h.84l-3.251-7.263-3.415,7.263h.836l.812-1.792Zm-1.67-3.838,1.366,3.119H264.4Z" transform="translate(-143.563 -46.367)" fill="#fff"/>
      <rect id="Rectangle_35" data-name="Rectangle 35" width="0.785" height="7.074" transform="translate(128.039 38.585)" fill="#fff"/>
      <path id="Path_2621" data-name="Path 2621" d="M297.726,84.891h-.785v5.4l-5.388-5.644v7.314h.785V86.517l5.388,5.643Z" transform="translate(-159.486 -46.306)" fill="#fff"/>
      <path id="Path_2622" data-name="Path 2622" d="M135.866,35.095l.567,1.293L142.1,49.039h1.743l-7.972-17.81-7.972,17.81h1.743l5.749-12.848Z" transform="translate(-69.961 -17.083)" fill="#fff"/>
      <path id="Path_2623" data-name="Path 2623" d="M294.766,35.093l.565,1.3,5.663,12.651h1.743l-7.972-17.81-7.972,17.81h1.743l5.75-12.848Z" transform="translate(-156.882 -17.083)" fill="#fff"/>
      <path id="Path_2624" data-name="Path 2624" d="M143.329,50.888l1.792,3.945h-3.584L142,53.808Z" transform="translate(-77.424 -27.837)" fill="#fff"/>
      <path id="Path_2625" data-name="Path 2625" d="M302.228,50.888l1.792,3.945h-3.584l.465-1.025Z" transform="translate(-164.346 -27.837)" fill="#fff"/>
    </g>
  </g>
</svg>
